<?xml version="1.0" standalone="no"?>
<!DOCTYPE svg PUBLIC "-//W3C//DTD SVG 20010904//EN"
 "http://www.w3.org/TR/2001/REC-SVG-20010904/DTD/svg10.dtd">
<svg version="1.0" xmlns="http://www.w3.org/2000/svg"
 width="957.000000pt" height="220.000000pt" viewBox="0 0 957.000000 220.000000"
 preserveAspectRatio="xMidYMid meet">

<g transform="translate(0.000000,220.000000) scale(0.100000,-0.100000)"
fill="#000000" stroke="none">
<path d="M990 2190 c-270 -28 -492 -139 -683 -340 -202 -212 -299 -457 -299
-750 0 -317 111 -573 342 -793 212 -202 457 -299 750 -299 317 0 573 111 793
342 202 212 299 457 299 750 0 317 -111 573 -342 793 -233 221 -547 330 -860
297z m540 -892 c0 -249 -4 -481 -9 -515 -32 -217 -217 -363 -462 -363 -260 0
-432 131 -447 343 l-5 67 160 0 160 0 7 -41 c5 -28 18 -53 40 -75 31 -31 39
-34 94 -34 49 0 64 4 86 25 51 47 51 48 54 563 l3 482 160 0 159 0 0 -452z"/>
<path d="M6843 1655 c-117 -51 -76 -225 53 -225 133 0 183 144 75 217 -38 26
-81 29 -128 8z"/>
<path d="M2915 1588 c-13 -36 -395 -1143 -395 -1146 0 -1 59 -1 132 0 l132 3
41 130 41 130 212 3 211 2 42 -135 43 -135 128 0 c70 0 128 3 128 8 0 4 -88
265 -196 580 l-197 572 -159 0 c-118 0 -160 -3 -163 -12z m241 -470 c37 -114
65 -210 62 -213 -3 -3 -68 -4 -145 -3 l-140 3 70 218 c39 119 74 214 78 210 4
-5 37 -101 75 -215z"/>
<path d="M8270 1415 l0 -105 -60 0 -60 0 0 -90 0 -90 60 0 60 0 0 -251 c0
-286 5 -313 65 -375 47 -50 117 -74 209 -74 54 0 132 12 141 22 2 1 -4 41 -14
88 l-17 85 -47 -3 c-39 -3 -50 0 -72 22 l-25 25 0 231 0 230 80 0 80 0 0 90 0
90 -80 0 -80 0 0 105 0 105 -120 0 -120 0 0 -105z"/>
<path d="M4174 1309 c-37 -10 -113 -76 -133 -113 -23 -42 -31 -31 -31 44 l0
70 -120 0 -120 0 2 -597 3 -598 118 -3 117 -3 0 236 c0 216 7 273 25 216 10
-33 84 -99 130 -116 64 -25 184 -17 250 15 99 48 170 149 195 277 17 84 8 272
-15 338 -39 111 -119 196 -216 230 -45 16 -156 18 -205 4z m95 -194 c73 -37
105 -110 106 -240 0 -80 -3 -96 -30 -150 -38 -76 -79 -105 -147 -105 -57 0
-96 17 -132 60 -72 86 -74 296 -4 385 48 62 141 84 207 50z"/>
<path d="M5160 1293 c-34 -17 -68 -45 -89 -73 -18 -25 -37 -46 -42 -48 -5 -2
-9 28 -9 67 l0 71 -115 0 -115 0 0 -600 0 -601 118 3 117 3 3 233 2 233 33
-43 c18 -23 52 -56 76 -73 40 -28 48 -30 140 -30 88 0 103 3 156 30 110 56
176 168 196 330 27 221 -51 416 -196 490 -48 25 -73 31 -139 33 -73 3 -87 0
-136 -25z m119 -178 c69 -35 111 -127 111 -240 0 -153 -72 -255 -180 -255 -90
0 -148 51 -175 155 -19 75 -19 125 0 200 18 69 38 101 85 133 39 26 116 30
159 7z"/>
<path d="M6048 1301 c-76 -25 -118 -52 -177 -116 -162 -178 -134 -539 52 -677
61 -44 114 -66 195 -78 191 -30 373 56 451 212 41 80 54 156 48 263 -11 200
-111 344 -276 395 -82 26 -213 26 -293 1z m226 -184 c102 -57 135 -269 65
-413 -26 -54 -68 -85 -124 -91 -126 -15 -205 87 -205 263 0 120 46 220 114
250 47 20 106 17 150 -9z"/>
<path d="M7615 1307 c-58 -22 -104 -58 -134 -104 l-31 -46 0 76 0 77 -115 0
-115 0 0 -435 0 -435 120 0 120 0 0 280 c0 263 1 283 20 321 28 54 71 79 140
79 62 0 108 -22 137 -67 16 -24 18 -58 21 -320 l3 -293 120 0 120 0 -3 328 -3
327 -33 67 c-36 74 -85 119 -152 143 -50 18 -172 19 -215 2z"/>
<path d="M9030 1306 c-145 -42 -220 -129 -220 -253 0 -72 25 -127 75 -172 52
-45 85 -58 244 -92 145 -31 184 -50 189 -92 8 -65 -48 -101 -149 -95 -75 4
-114 24 -137 71 -12 26 -17 27 -90 27 -112 0 -152 -9 -152 -32 0 -33 47 -113
86 -148 150 -131 467 -127 607 8 59 56 81 106 81 182 0 143 -69 196 -322 251
-160 34 -187 49 -187 105 0 54 45 84 124 84 66 0 112 -24 136 -69 l15 -30 98
5 c124 7 123 7 113 41 -26 91 -77 148 -171 192 -48 22 -71 25 -175 28 -77 1
-136 -2 -165 -11z"/>
<path d="M6780 875 l0 -435 120 0 120 0 0 435 0 435 -120 0 -120 0 0 -435z"/>
</g>
</svg>
